<?xml version="1.0" encoding="UTF-8"?>
<svg width='100' xmlns="http://www.w3.org/2000/svg" version="1.1" viewBox="0 0 841.89 595.28">
  <defs>
    <style>
      .cls-1 {
        fill: #0baa25;
      }
    </style>
  </defs>
  <!-- Generator: Adobe Illustrator 28.6.0, SVG Export Plug-In . SVG Version: 1.2.0 Build 709)  -->
  <g>
    <g id="katman_1">
      <path class="cls-1" d="M232.96,146.58l44.58,29.32-5.86,8.94-43.84.13,30.56,20.09-5.87,8.94-44.58-29.32,5.86-8.94,43.9-.1-30.62-20.12,5.86-8.94Z"/>
      <path class="cls-1" d="M314.1,131.87l-17.17,12.47,3.11,10.27-9.07,6.61-15.85-54.43,10.08-7.32,46.85,31.92-9.14,6.64-8.81-6.16ZM287.4,113.15l6.87,22.58,12.48-9.07-19.35-13.51Z"/>
      <path class="cls-1" d="M326.81,75.92l37.1-12.28,2.72,8.2-13.48,4.47,14.03,42.38-10.14,3.37-14.03-42.38-13.48,4.47-2.72-8.23Z"/>
      <path class="cls-1" d="M401.89,57.34l10.69.16-.55,32.98c-.13,7.32,3.79,11.21,10.6,11.31,6.87.1,10.88-3.63,11.01-10.98l.55-32.98,10.76.16-.55,32.89c-.23,14.06-10.4,20.74-22.1,20.57-11.66-.19-21.19-7.23-20.96-21.26l.55-32.85Z"/>
      <path class="cls-1" d="M505.81,73.27c11.99,4.5,15.39,13.71,12.25,22.07-2.3,6.06-7.97,10.95-16.75,10.08l4.31,24.69-11.57-4.34-3.69-23.55-4.73-1.78-7.32,19.44-10.01-3.76,18.76-49.83,18.76,7ZM502.34,81.43l-8.36-3.14-5.51,14.65,8.36,3.14c5.57,2.11,9.17.1,10.85-4.37,1.68-4.44.23-8.17-5.35-10.27Z"/>
      <path class="cls-1" d="M556.55,155.04l-16.1-13.84-9.27,5.41-8.52-7.32,49.28-27.99,9.43,8.1-20.22,52.94-8.55-7.35,3.95-9.95ZM568.57,124.74l-20.38,11.89,11.7,10.04,8.68-21.94Z"/>
      <path class="cls-1" d="M624.22,170.89l-38.23,23.39,9.17,14.97-7.23,4.44-14.74-24.07,45.46-27.83,5.57,9.1Z"/>
      <path class="cls-1" d="M232.96,146.58l44.58,29.32-5.86,8.94-43.84.13,30.56,20.09-5.87,8.94-44.58-29.32,5.86-8.94,43.9-.1-30.62-20.12,5.86-8.94Z"/>
      <path class="cls-1" d="M314.1,131.87l-17.17,12.47,3.11,10.27-9.07,6.61-15.85-54.43,10.08-7.32,46.85,31.92-9.14,6.64-8.81-6.16ZM287.4,113.15l6.87,22.58,12.48-9.07-19.35-13.51Z"/>
      <path class="cls-1" d="M326.81,75.92l37.1-12.28,2.72,8.2-13.48,4.47,14.03,42.38-10.14,3.37-14.03-42.38-13.48,4.47-2.72-8.23Z"/>
      <path class="cls-1" d="M401.89,57.34l10.69.16-.55,32.98c-.13,7.32,3.79,11.21,10.6,11.31,6.87.1,10.88-3.63,11.01-10.98l.55-32.98,10.76.16-.55,32.89c-.23,14.06-10.4,20.74-22.1,20.57-11.66-.19-21.19-7.23-20.96-21.26l.55-32.85Z"/>
      <path class="cls-1" d="M505.81,73.27c11.99,4.5,15.39,13.71,12.25,22.07-2.3,6.06-7.97,10.95-16.75,10.08l4.31,24.69-11.57-4.34-3.69-23.55-4.73-1.78-7.32,19.44-10.01-3.76,18.76-49.83,18.76,7ZM502.34,81.43l-8.36-3.14-5.51,14.65,8.36,3.14c5.57,2.11,9.17.1,10.85-4.37,1.68-4.44.23-8.17-5.35-10.27Z"/>
      <path class="cls-1" d="M556.55,155.04l-16.1-13.84-9.27,5.41-8.52-7.32,49.28-27.99,9.43,8.1-20.22,52.94-8.55-7.35,3.95-9.95ZM568.57,124.74l-20.38,11.89,11.7,10.04,8.68-21.94Z"/>
      <path class="cls-1" d="M624.22,170.89l-38.23,23.39,9.17,14.97-7.23,4.44-14.74-24.07,45.46-27.83,5.57,9.1Z"/>
      <path class="cls-1" d="M232.96,146.58l44.58,29.32-5.86,8.94-43.84.13,30.56,20.09-5.87,8.94-44.58-29.32,5.86-8.94,43.9-.1-30.62-20.12,5.86-8.94Z"/>
      <path class="cls-1" d="M314.1,131.87l-17.17,12.47,3.11,10.27-9.07,6.61-15.85-54.43,10.08-7.32,46.85,31.92-9.14,6.64-8.81-6.16ZM287.4,113.15l6.87,22.58,12.48-9.07-19.35-13.51Z"/>
      <path class="cls-1" d="M326.81,75.92l37.1-12.28,2.72,8.2-13.48,4.47,14.03,42.38-10.14,3.37-14.03-42.38-13.48,4.47-2.72-8.23Z"/>
      <path class="cls-1" d="M401.89,57.34l10.69.16-.55,32.98c-.13,7.32,3.79,11.21,10.6,11.31,6.87.1,10.88-3.63,11.01-10.98l.55-32.98,10.76.16-.55,32.89c-.23,14.06-10.4,20.74-22.1,20.57-11.66-.19-21.19-7.23-20.96-21.26l.55-32.85Z"/>
      <path class="cls-1" d="M505.81,73.27c11.99,4.5,15.39,13.71,12.25,22.07-2.3,6.06-7.97,10.95-16.75,10.08l4.31,24.69-11.57-4.34-3.69-23.55-4.73-1.78-7.32,19.44-10.01-3.76,18.76-49.83,18.76,7ZM502.34,81.43l-8.36-3.14-5.51,14.65,8.36,3.14c5.57,2.11,9.17.1,10.85-4.37,1.68-4.44.23-8.17-5.35-10.27Z"/>
      <path class="cls-1" d="M556.55,155.04l-16.1-13.84-9.27,5.41-8.52-7.32,49.28-27.99,9.43,8.1-20.22,52.94-8.55-7.35,3.95-9.95ZM568.57,124.74l-20.38,11.89,11.7,10.04,8.68-21.94Z"/>
      <path class="cls-1" d="M624.22,170.89l-38.23,23.39,9.17,14.97-7.23,4.44-14.74-24.07,45.46-27.83,5.57,9.1Z"/>
      <path class="cls-1" d="M235.08,281.71l-.59,10.69-53.23-2.85.58-10.69,53.24,2.85Z"/>
      <path class="cls-1" d="M245.07,363.05l-51.91,12.44-2.49-10.4,29.9-32.08-35.57,8.52-2.5-10.4,51.91-12.44,2.49,10.4-30,32.11,35.64-8.55,2.53,10.4Z"/>
      <path class="cls-1" d="M270.13,434.55l-7.09-10.04c2.27-4.6,1.65-9.59-1.62-14.19-5.51-7.81-14.91-9.3-23.56-3.18-8.85,6.25-10.47,15.62-4.73,23.72,4.76,6.74,11.66,8.29,18.76,5.25l-10.59-14.97,6.67-4.73,16.66,23.56-7.62,5.38c-10.08,4.5-23.78,2.33-31.98-9.27-8.94-12.67-6.58-28.74,6.45-37.94,13.02-9.2,29.03-6.16,37.94,6.45,6.93,9.78,7.45,21,.71,29.97Z"/>
      <path class="cls-1" d="M317.2,452c10.63,7.19,11.79,16.91,6.77,24.3-3.63,5.38-10.3,8.81-18.66,5.9l-1.55,25.04-10.24-6.93,1.91-23.79-4.18-2.82-11.63,17.2-8.85-5.99,29.87-44.13,16.56,11.21ZM311.92,459.1l-7.39-4.99-8.78,12.96,7.39,4.99c4.92,3.34,8.91,2.23,11.6-1.75,2.66-3.89,2.11-7.87-2.82-11.21Z"/>
      <path class="cls-1" d="M382.48,488.93l-19.47-5.54-3.66,12.86,17.27,4.93-2.33,8.16-17.27-4.92-3.89,13.57,19.47,5.54-2.4,8.36-29.75-8.49,14.65-51.32,29.74,8.49-2.36,8.36Z"/>
      <path class="cls-1" d="M456.76,508.48c.84,16.11-9.66,27.12-26.67,28.03l-18.6.97-2.82-53.23,18.6-.97c17.01-.91,28.64,9.04,29.49,25.21ZM429.25,527.44c11.21-.59,17.2-7.33,16.62-18.41-.58-11.05-7.26-17.37-18.47-16.78l-7.55.39,1.85,35.15,7.55-.35Z"/>
      <path class="cls-1" d="M477.93,474.47l10.07-3.56,17.82,50.22-10.07,3.56-17.82-50.22Z"/>
      <path class="cls-1" d="M543.11,449.58l-16.75,11.34,7.52,11.05,14.84-10.08,4.76,7-14.84,10.08,7.94,11.7,16.75-11.34,4.89,7.19-25.59,17.37-29.94-44.16,25.6-17.37,4.83,7.23Z"/>
      <path class="cls-1" d="M583.57,390.14l42.74,31.95-6.39,8.55-43.77-2.5,29.29,21.9-6.38,8.55-42.74-31.95,6.39-8.55,43.83,2.56-29.35-21.93,6.38-8.59Z"/>
      <path class="cls-1" d="M592.5,371.68l11.67-37.33,8.23,2.59-4.25,13.54,42.64,13.35-3.21,10.21-42.64-13.35-4.25,13.54-8.2-2.56Z"/>
      <path class="cls-1" d="M660.66,293.99c.19,11.08-5.48,19.7-15.55,20.02l-.2-11.44c4.28-.39,7.03-3.24,6.97-8.2-.1-5.02-2.82-7.97-6.61-7.91-11.53.19-4.15,27.54-23.46,27.8-9.62.16-15.55-7.55-15.71-18.53-.16-10.92,5.28-18.5,14.87-19.34l.2,11.76c-3.5.29-6.22,3.14-6.22,7.74-.1,4.21,2.04,7.29,6.38,7.23,10.69-.16,4.28-27.41,23.07-27.7,8.43-.16,16.07,6.42,16.27,18.57Z"/>
      <path class="cls-1" d="M235.08,281.71l-.59,10.69-53.23-2.85.58-10.69,53.24,2.85Z"/>
      <path class="cls-1" d="M245.07,363.05l-51.91,12.44-2.49-10.4,29.9-32.08-35.57,8.52-2.5-10.4,51.91-12.44,2.49,10.4-30,32.11,35.64-8.55,2.53,10.4Z"/>
      <path class="cls-1" d="M270.13,434.55l-7.09-10.04c2.27-4.6,1.65-9.59-1.62-14.19-5.51-7.81-14.91-9.3-23.56-3.18-8.85,6.25-10.47,15.62-4.73,23.72,4.76,6.74,11.66,8.29,18.76,5.25l-10.59-14.97,6.67-4.73,16.66,23.56-7.62,5.38c-10.08,4.5-23.78,2.33-31.98-9.27-8.94-12.67-6.58-28.74,6.45-37.94,13.02-9.2,29.03-6.16,37.94,6.45,6.93,9.78,7.45,21,.71,29.97Z"/>
      <path class="cls-1" d="M317.2,452c10.63,7.19,11.79,16.91,6.77,24.3-3.63,5.38-10.3,8.81-18.66,5.9l-1.55,25.04-10.24-6.93,1.91-23.79-4.18-2.82-11.63,17.2-8.85-5.99,29.87-44.13,16.56,11.21ZM311.92,459.1l-7.39-4.99-8.78,12.96,7.39,4.99c4.92,3.34,8.91,2.23,11.6-1.75,2.66-3.89,2.11-7.87-2.82-11.21Z"/>
      <path class="cls-1" d="M382.48,488.93l-19.47-5.54-3.66,12.86,17.27,4.93-2.33,8.16-17.27-4.92-3.89,13.57,19.47,5.54-2.4,8.36-29.75-8.49,14.65-51.32,29.74,8.49-2.36,8.36Z"/>
      <path class="cls-1" d="M456.76,508.48c.84,16.11-9.66,27.12-26.67,28.03l-18.6.97-2.82-53.23,18.6-.97c17.01-.91,28.64,9.04,29.49,25.21ZM429.25,527.44c11.21-.59,17.2-7.33,16.62-18.41-.58-11.05-7.26-17.37-18.47-16.78l-7.55.39,1.85,35.15,7.55-.35Z"/>
      <path class="cls-1" d="M477.93,474.47l10.07-3.56,17.82,50.22-10.07,3.56-17.82-50.22Z"/>
      <path class="cls-1" d="M543.11,449.58l-16.75,11.34,7.52,11.05,14.84-10.08,4.76,7-14.84,10.08,7.94,11.7,16.75-11.34,4.89,7.19-25.59,17.37-29.94-44.16,25.6-17.37,4.83,7.23Z"/>
      <path class="cls-1" d="M583.57,390.14l42.74,31.95-6.39,8.55-43.77-2.5,29.29,21.9-6.38,8.55-42.74-31.95,6.39-8.55,43.83,2.56-29.35-21.93,6.38-8.59Z"/>
      <path class="cls-1" d="M592.5,371.68l11.67-37.33,8.23,2.59-4.25,13.54,42.64,13.35-3.21,10.21-42.64-13.35-4.25,13.54-8.2-2.56Z"/>
      <path class="cls-1" d="M660.66,293.99c.19,11.08-5.48,19.7-15.55,20.02l-.2-11.44c4.28-.39,7.03-3.24,6.97-8.2-.1-5.02-2.82-7.97-6.61-7.91-11.53.19-4.15,27.54-23.46,27.8-9.62.16-15.55-7.55-15.71-18.53-.16-10.92,5.28-18.5,14.87-19.34l.2,11.76c-3.5.29-6.22,3.14-6.22,7.74-.1,4.21,2.04,7.29,6.38,7.23,10.69-.16,4.28-27.41,23.07-27.7,8.43-.16,16.07,6.42,16.27,18.57Z"/>
      <path class="cls-1" d="M235.08,281.71l-.59,10.69-53.23-2.85.58-10.69,53.24,2.85Z"/>
      <path class="cls-1" d="M245.07,363.05l-51.91,12.44-2.49-10.4,29.9-32.08-35.57,8.52-2.5-10.4,51.91-12.44,2.49,10.4-30,32.11,35.64-8.55,2.53,10.4Z"/>
      <path class="cls-1" d="M270.13,434.55l-7.09-10.04c2.27-4.6,1.65-9.59-1.62-14.19-5.51-7.81-14.91-9.3-23.56-3.18-8.85,6.25-10.47,15.62-4.73,23.72,4.76,6.74,11.66,8.29,18.76,5.25l-10.59-14.97,6.67-4.73,16.66,23.56-7.62,5.38c-10.08,4.5-23.78,2.33-31.98-9.27-8.94-12.67-6.58-28.74,6.45-37.94,13.02-9.2,29.03-6.16,37.94,6.45,6.93,9.78,7.45,21,.71,29.97Z"/>
      <path class="cls-1" d="M317.2,452c10.63,7.19,11.79,16.91,6.77,24.3-3.63,5.38-10.3,8.81-18.66,5.9l-1.55,25.04-10.24-6.93,1.91-23.79-4.18-2.82-11.63,17.2-8.85-5.99,29.87-44.13,16.56,11.21ZM311.92,459.1l-7.39-4.99-8.78,12.96,7.39,4.99c4.92,3.34,8.91,2.23,11.6-1.75,2.66-3.89,2.11-7.87-2.82-11.21Z"/>
      <path class="cls-1" d="M382.48,488.93l-19.47-5.54-3.66,12.86,17.27,4.93-2.33,8.16-17.27-4.92-3.89,13.57,19.47,5.54-2.4,8.36-29.75-8.49,14.65-51.32,29.74,8.49-2.36,8.36Z"/>
      <path class="cls-1" d="M456.76,508.48c.84,16.11-9.66,27.12-26.67,28.03l-18.6.97-2.82-53.23,18.6-.97c17.01-.91,28.64,9.04,29.49,25.21ZM429.25,527.44c11.21-.59,17.2-7.33,16.62-18.41-.58-11.05-7.26-17.37-18.47-16.78l-7.55.39,1.85,35.15,7.55-.35Z"/>
      <path class="cls-1" d="M477.93,474.47l10.07-3.56,17.82,50.22-10.07,3.56-17.82-50.22Z"/>
      <path class="cls-1" d="M543.11,449.58l-16.75,11.34,7.52,11.05,14.84-10.08,4.76,7-14.84,10.08,7.94,11.7,16.75-11.34,4.89,7.19-25.59,17.37-29.94-44.16,25.6-17.37,4.83,7.23Z"/>
      <path class="cls-1" d="M583.57,390.14l42.74,31.95-6.39,8.55-43.77-2.5,29.29,21.9-6.38,8.55-42.74-31.95,6.39-8.55,43.83,2.56-29.35-21.93,6.38-8.59Z"/>
      <path class="cls-1" d="M592.5,371.68l11.67-37.33,8.23,2.59-4.25,13.54,42.64,13.35-3.21,10.21-42.64-13.35-4.25,13.54-8.2-2.56Z"/>
      <path class="cls-1" d="M660.66,293.99c.19,11.08-5.48,19.7-15.55,20.02l-.2-11.44c4.28-.39,7.03-3.24,6.97-8.2-.1-5.02-2.82-7.97-6.61-7.91-11.53.19-4.15,27.54-23.46,27.8-9.62.16-15.55-7.55-15.71-18.53-.16-10.92,5.28-18.5,14.87-19.34l.2,11.76c-3.5.29-6.22,3.14-6.22,7.74-.1,4.21,2.04,7.29,6.38,7.23,10.69-.16,4.28-27.41,23.07-27.7,8.43-.16,16.07,6.42,16.27,18.57Z"/>
      <path class="cls-1" d="M501.64,274.13l-80.97-117.91-80.97,117.91c-15.94,23.23-17.69,50.58-4.8,75.07,13.61,25.86,40.7,43.09,72.45,46.88v37.71h26.6v-138.9h-26.6v74.33c-21.74-3.43-39.85-15.2-48.93-32.43-8.26-15.68-7.13-32.63,3.18-47.63l59.03-85.99,59.03,85.99c10.3,15.03,11.44,31.95,3.18,47.63-7.19,13.67-20.09,23.88-35.93,29.23v27.67c26.05-6.42,47.72-22.26,59.45-44.52,12.96-24.46,11.21-51.84-4.73-75.04Z"/>
    </g>
  </g>
</svg>
