<?xml version="1.0" encoding="utf-8"?>
<!-- Generator: Adobe Illustrator 22.0.0, SVG Export Plug-In . SVG Version: 6.00 Build 0)  -->
<svg version="1.1" id="Icon_Set" xmlns="http://www.w3.org/2000/svg" xmlns:xlink="http://www.w3.org/1999/xlink" x="0px" y="0px"
	 viewBox="0 0 64 64" style="enable-background:new 0 0 64 64;" xml:space="preserve">
<style type="text/css">
	.st0{fill:#40C4FF;}
	.st1{fill:#263238;}
	.st2{fill:#FFD740;}
	.st3{fill:#FF5252;}
	.st4{fill:#4DB6AC;}
	.st5{fill:#FFFFFF;}
	.st6{fill:#4FC3F7;}
	.st7{fill:#37474F;}
</style>
<g>
	<g>
		<path class="st1" d="M53,9.5c-0.215,0-0.406-0.138-0.475-0.342L51.973,7.5c-0.229-0.691-0.78-1.242-1.473-1.473l-1.658-0.553
			C48.638,5.406,48.5,5.215,48.5,5s0.138-0.406,0.342-0.474L50.5,3.973c0.692-0.231,1.243-0.782,1.473-1.473l0.553-1.659
			c0.137-0.408,0.812-0.408,0.949,0L54.027,2.5c0.229,0.691,0.78,1.242,1.473,1.473l1.658,0.553C57.362,4.594,57.5,4.785,57.5,5
			s-0.138,0.406-0.342,0.474L55.5,6.027c-0.692,0.231-1.243,0.782-1.473,1.473l-0.553,1.659C53.406,9.362,53.215,9.5,53,9.5z
			 M50.581,5l0.235,0.079c0.989,0.33,1.776,1.117,2.105,2.105L53,7.419l0.078-0.235c0.329-0.988,1.116-1.775,2.105-2.105L55.419,5
			l-0.235-0.079c-0.989-0.33-1.776-1.117-2.105-2.105L53,2.581l-0.078,0.235c-0.329,0.988-1.116,1.775-2.105,2.105L50.581,5z"/>
	</g>
	<g>
		<path class="st1" d="M11,49.5c-0.215,0-0.406-0.138-0.475-0.342L9.973,47.5c-0.229-0.691-0.78-1.242-1.473-1.473l-1.658-0.553
			C6.638,45.406,6.5,45.215,6.5,45s0.138-0.406,0.342-0.474L8.5,43.973c0.692-0.231,1.243-0.782,1.473-1.473l0.553-1.659
			c0.137-0.408,0.812-0.408,0.949,0l0.553,1.658c0.229,0.691,0.78,1.242,1.473,1.473l1.658,0.553C15.362,44.594,15.5,44.785,15.5,45
			s-0.138,0.406-0.342,0.474L13.5,46.027c-0.692,0.231-1.243,0.782-1.473,1.473l-0.553,1.659C11.406,49.362,11.215,49.5,11,49.5z
			 M8.581,45l0.235,0.079c0.989,0.33,1.776,1.117,2.105,2.105L11,47.419l0.078-0.235c0.329-0.988,1.116-1.775,2.105-2.105L13.419,45
			l-0.235-0.079c-0.989-0.33-1.776-1.117-2.105-2.105L11,42.581l-0.078,0.235c-0.329,0.988-1.116,1.775-2.105,2.105L8.581,45z"/>
	</g>
	<g>
		<path class="st1" d="M6,54.5H5c-0.276,0-0.5-0.224-0.5-0.5s0.224-0.5,0.5-0.5h1c0.276,0,0.5,0.224,0.5,0.5S6.276,54.5,6,54.5z"/>
	</g>
	<g>
		<path class="st1" d="M19,54.5H8c-0.276,0-0.5-0.224-0.5-0.5s0.224-0.5,0.5-0.5h11c0.276,0,0.5,0.224,0.5,0.5S19.276,54.5,19,54.5z
			"/>
	</g>
	<g>
		<path class="st1" d="M59,54.5h-1c-0.276,0-0.5-0.224-0.5-0.5s0.224-0.5,0.5-0.5h1c0.276,0,0.5,0.224,0.5,0.5S59.276,54.5,59,54.5z
			"/>
	</g>
	<g>
		<path class="st1" d="M56,54.5H45c-0.276,0-0.5-0.224-0.5-0.5s0.224-0.5,0.5-0.5h11c0.276,0,0.5,0.224,0.5,0.5S56.276,54.5,56,54.5
			z"/>
	</g>
	<g>
		<path class="st2" d="M11.748,20.78l2.948-2.948v-4.169c0-3.296,2.672-5.968,5.968-5.968h4.168l2.948-2.948
			c2.331-2.331,6.11-2.331,8.44,0l2.948,2.948h4.169c3.296,0,5.968,2.672,5.968,5.968v4.169l2.948,2.948
			c2.331,2.331,2.331,6.11,0,8.44l-2.948,2.948v4.168c0,3.296-2.672,5.968-5.968,5.968h-4.169l-2.948,2.948
			c-2.331,2.331-6.11,2.331-8.44,0l-2.948-2.948h-4.168c-3.296,0-5.968-2.672-5.968-5.968v-4.168l-2.948-2.948
			C9.417,26.889,9.417,23.111,11.748,20.78z"/>
		<path class="st1" d="M32,47.5c-1.728,0-3.353-0.673-4.574-1.895l-2.801-2.801h-3.961c-3.566,0-6.469-2.902-6.469-6.468v-3.961
			l-2.801-2.801C10.173,28.352,9.5,26.728,9.5,25c0-1.728,0.673-3.352,1.895-4.574l2.801-2.801v-3.962
			c0-3.566,2.902-6.468,6.469-6.468h3.961l2.801-2.801C28.647,3.173,30.272,2.5,32,2.5s3.352,0.673,4.573,1.895l2.802,2.801h3.961
			c3.566,0,6.469,2.901,6.469,6.468v3.962l2.801,2.801C53.827,21.648,54.5,23.272,54.5,25c0,1.728-0.673,3.352-1.895,4.574
			l-2.801,2.801v3.961c0,3.566-2.902,6.468-6.469,6.468h-3.961l-2.802,2.801C35.352,46.827,33.728,47.5,32,47.5z M20.664,8.196
			c-3.016,0-5.469,2.453-5.469,5.468v4.169c0,0.133-0.053,0.26-0.146,0.354l-2.947,2.947C11.068,22.167,10.5,23.54,10.5,25
			c0,1.461,0.568,2.834,1.602,3.867l2.947,2.948c0.094,0.094,0.146,0.221,0.146,0.354v4.168c0,3.015,2.453,5.468,5.469,5.468h4.168
			c0.133,0,0.26,0.053,0.354,0.146l2.947,2.948C29.166,45.931,30.539,46.5,32,46.5s2.834-0.569,3.866-1.602l2.948-2.948
			c0.094-0.094,0.221-0.146,0.354-0.146h4.168c3.016,0,5.469-2.453,5.469-5.468v-4.168c0-0.133,0.053-0.26,0.146-0.354l2.947-2.948
			C52.932,27.834,53.5,26.461,53.5,25c0-1.46-0.568-2.833-1.602-3.867l-2.947-2.947c-0.094-0.094-0.146-0.221-0.146-0.354v-4.169
			c0-3.015-2.453-5.468-5.469-5.468h-4.168c-0.133,0-0.26-0.053-0.354-0.146l-2.948-2.948C34.834,4.069,33.461,3.5,32,3.5
			s-2.834,0.569-3.867,1.602l-2.947,2.948c-0.094,0.094-0.221,0.146-0.354,0.146H20.664z"/>
	</g>
	<g>
		<path class="st1" d="M40.8,61.5c-0.116,0-0.232-0.041-0.324-0.12L32,54.157l-8.476,7.224c-0.148,0.127-0.357,0.154-0.534,0.074
			C22.813,61.372,22.7,61.195,22.7,61V44.304c0-0.276,0.224-0.5,0.5-0.5s0.5,0.224,0.5,0.5v15.613l7.976-6.797
			c0.188-0.159,0.461-0.159,0.648,0l7.976,6.797V44.304c0-0.276,0.224-0.5,0.5-0.5s0.5,0.224,0.5,0.5V61
			c0,0.195-0.113,0.372-0.29,0.454C40.942,61.485,40.871,61.5,40.8,61.5z"/>
	</g>
	<g>
		<circle class="st5" cx="32" cy="25.282" r="14"/>
		<path class="st1" d="M32,39.782c-7.995,0-14.5-6.505-14.5-14.5s6.505-14.5,14.5-14.5s14.5,6.505,14.5,14.5
			S39.995,39.782,32,39.782z M32,11.782c-7.444,0-13.5,6.056-13.5,13.5s6.056,13.5,13.5,13.5s13.5-6.056,13.5-13.5
			S39.444,11.782,32,11.782z"/>
	</g>
	<g>
		<polygon class="st0" points="32,34.15 23,24.15 25.935,20.15 38.065,20.15 41,24.15 		"/>
		<path class="st1" d="M32,34.65c-0.142,0-0.276-0.06-0.372-0.166l-9-10c-0.158-0.176-0.171-0.439-0.031-0.63l2.935-4
			c0.095-0.128,0.244-0.204,0.403-0.204h12.131c0.159,0,0.309,0.076,0.403,0.204l2.935,4c0.14,0.191,0.127,0.454-0.031,0.63l-9,10
			C32.276,34.59,32.142,34.65,32,34.65z M23.644,24.118L32,33.402l8.356-9.285l-2.544-3.468H26.188L23.644,24.118z"/>
	</g>
	<g>
		<path class="st1" d="M32,34.65c-0.204,0-0.389-0.125-0.464-0.314l-4-10c-0.062-0.154-0.043-0.329,0.05-0.466
			s0.248-0.22,0.414-0.22h8c0.166,0,0.321,0.083,0.414,0.22s0.111,0.312,0.05,0.466l-4,10C32.389,34.525,32.204,34.65,32,34.65z
			 M28.738,24.65L32,32.804l3.262-8.154H28.738z"/>
	</g>
	<g>
		<path class="st1" d="M41,24.65H23c-0.276,0-0.5-0.224-0.5-0.5s0.224-0.5,0.5-0.5h18c0.276,0,0.5,0.224,0.5,0.5
			S41.276,24.65,41,24.65z"/>
	</g>
	<g>
		<path class="st1" d="M36,24.65c-0.132,0-0.259-0.052-0.354-0.146L32,20.857l-3.646,3.646c-0.112,0.113-0.267,0.165-0.431,0.141
			c-0.157-0.024-0.294-0.123-0.367-0.265l-2.065-4c-0.127-0.246-0.03-0.547,0.215-0.674c0.243-0.125,0.547-0.032,0.674,0.215
			l1.751,3.392l3.517-3.516c0.195-0.195,0.512-0.195,0.707,0l3.517,3.516l1.751-3.392c0.127-0.247,0.432-0.34,0.674-0.215
			c0.245,0.127,0.342,0.428,0.215,0.674l-2.065,4c-0.073,0.142-0.21,0.24-0.367,0.265C36.051,24.648,36.025,24.65,36,24.65z"/>
	</g>
</g>
</svg>
